<svg xmlns="http://www.w3.org/2000/svg" xmlns:xlink="http://www.w3.org/1999/xlink" width="1200" zoomAndPan="magnify" viewBox="0 0 900 149.999998" height="200" preserveAspectRatio="xMidYMid meet" version="1.0"><defs><g/></defs><rect x="-90" width="1080" fill="#ffffff" y="-15" height="179.999997" fill-opacity="1"/><rect x="-90" width="1080" fill="#ffffff" y="-15" height="179.999997" fill-opacity="1"/><rect x="-90" width="1080" fill="#ffffff" y="-15" height="179.999997" fill-opacity="1"/><g fill="#183968" fill-opacity="1"><g transform="translate(2.14281, 119.708844)"><g><path d="M 79.734375 -24.390625 C 79.734375 -16.234375 76.546875 -9.921875 70.171875 -5.453125 C 63.796875 -0.984375 54.820312 1.25 43.25 1.25 C 21.726562 1.25 9.253906 -6.226562 5.828125 -21.1875 L 17.421875 -23.5 C 18.765625 -18.195312 21.609375 -14.300781 25.953125 -11.8125 C 30.296875 -9.332031 36.207031 -8.09375 43.6875 -8.09375 C 51.414062 -8.09375 57.378906 -9.414062 61.578125 -12.0625 C 65.785156 -14.71875 67.890625 -18.613281 67.890625 -23.75 C 67.890625 -26.632812 67.226562 -28.972656 65.90625 -30.765625 C 64.59375 -32.566406 62.742188 -34.050781 60.359375 -35.21875 C 57.984375 -36.394531 55.144531 -37.378906 51.84375 -38.171875 C 48.539062 -38.960938 44.882812 -39.820312 40.875 -40.75 C 33.894531 -42.289062 28.597656 -43.832031 24.984375 -45.375 C 21.367188 -46.925781 18.515625 -48.648438 16.421875 -50.546875 C 14.328125 -52.453125 12.726562 -54.675781 11.625 -57.21875 C 10.519531 -59.769531 9.96875 -62.695312 9.96875 -66 C 9.96875 -73.5625 12.859375 -79.390625 18.640625 -83.484375 C 24.429688 -87.585938 32.71875 -89.640625 43.5 -89.640625 C 53.53125 -89.640625 61.195312 -88.101562 66.5 -85.03125 C 71.8125 -81.957031 75.535156 -76.722656 77.671875 -69.328125 L 65.875 -67.265625 C 64.582031 -71.941406 62.117188 -75.332031 58.484375 -77.4375 C 54.847656 -79.550781 49.8125 -80.609375 43.375 -80.609375 C 36.3125 -80.609375 30.921875 -79.4375 27.203125 -77.09375 C 23.484375 -74.757812 21.625 -71.269531 21.625 -66.625 C 21.625 -63.914062 22.34375 -61.671875 23.78125 -59.890625 C 25.226562 -58.117188 27.304688 -56.613281 30.015625 -55.375 C 32.734375 -54.144531 38.148438 -52.632812 46.265625 -50.84375 C 48.972656 -50.207031 51.675781 -49.566406 54.375 -48.921875 C 57.070312 -48.273438 59.648438 -47.5 62.109375 -46.59375 C 64.578125 -45.695312 66.890625 -44.644531 69.046875 -43.4375 C 71.203125 -42.226562 73.070312 -40.742188 74.65625 -38.984375 C 76.238281 -37.234375 77.476562 -35.164062 78.375 -32.78125 C 79.28125 -30.394531 79.734375 -27.597656 79.734375 -24.390625 Z M 79.734375 -24.390625 "/></g></g></g><g fill="#183968" fill-opacity="1"><g transform="translate(87.768513, 119.708844)"><g><path d="M 17.296875 -31.53125 C 17.296875 -23.757812 18.90625 -17.757812 22.125 -13.53125 C 25.34375 -9.3125 30.046875 -7.203125 36.234375 -7.203125 C 41.117188 -7.203125 45.035156 -8.179688 47.984375 -10.140625 C 50.929688 -12.109375 52.925781 -14.597656 53.96875 -17.609375 L 63.875 -14.796875 C 59.820312 -4.097656 50.609375 1.25 36.234375 1.25 C 26.203125 1.25 18.5625 -1.734375 13.3125 -7.703125 C 8.070312 -13.679688 5.453125 -22.5625 5.453125 -34.34375 C 5.453125 -45.550781 8.070312 -54.140625 13.3125 -60.109375 C 18.5625 -66.085938 26.054688 -69.078125 35.796875 -69.078125 C 55.722656 -69.078125 65.6875 -57.0625 65.6875 -33.03125 L 65.6875 -31.53125 Z M 54.03125 -40.1875 C 53.40625 -47.332031 51.585938 -52.539062 48.578125 -55.8125 C 45.566406 -59.09375 41.242188 -60.734375 35.609375 -60.734375 C 30.128906 -60.734375 25.789062 -58.90625 22.59375 -55.25 C 19.394531 -51.59375 17.671875 -46.570312 17.421875 -40.1875 Z M 54.03125 -40.1875 "/></g></g></g><g fill="#183968" fill-opacity="1"><g transform="translate(159.165055, 119.708844)"><g><path d="M 25.953125 1.25 C 19.140625 1.25 14.019531 -0.546875 10.59375 -4.140625 C 7.164062 -7.734375 5.453125 -12.664062 5.453125 -18.9375 C 5.453125 -25.957031 7.757812 -31.347656 12.375 -35.109375 C 17 -38.867188 24.445312 -40.875 34.71875 -41.125 L 49.953125 -41.375 L 49.953125 -45.0625 C 49.953125 -50.582031 48.78125 -54.53125 46.4375 -56.90625 C 44.101562 -59.289062 40.429688 -60.484375 35.421875 -60.484375 C 30.359375 -60.484375 26.675781 -59.625 24.375 -57.90625 C 22.082031 -56.195312 20.707031 -53.460938 20.25 -49.703125 L 8.46875 -50.765625 C 10.382812 -62.972656 19.453125 -69.078125 35.671875 -69.078125 C 44.191406 -69.078125 50.601562 -67.125 54.90625 -63.21875 C 59.207031 -59.3125 61.359375 -53.660156 61.359375 -46.265625 L 61.359375 -17.046875 C 61.359375 -13.703125 61.796875 -11.179688 62.671875 -9.484375 C 63.554688 -7.796875 65.234375 -6.953125 67.703125 -6.953125 C 68.785156 -6.953125 70.015625 -7.097656 71.390625 -7.390625 L 71.390625 -0.375 C 68.554688 0.289062 65.65625 0.625 62.6875 0.625 C 58.507812 0.625 55.46875 -0.46875 53.5625 -2.65625 C 51.65625 -4.851562 50.578125 -8.289062 50.328125 -12.96875 L 49.953125 -12.96875 C 47.078125 -7.789062 43.722656 -4.125 39.890625 -1.96875 C 36.066406 0.175781 31.421875 1.25 25.953125 1.25 Z M 28.515625 -7.203125 C 32.648438 -7.203125 36.328125 -8.140625 39.546875 -10.015625 C 42.765625 -11.898438 45.300781 -14.484375 47.15625 -17.765625 C 49.019531 -21.046875 49.953125 -24.421875 49.953125 -27.890625 L 49.953125 -33.46875 L 37.609375 -33.21875 C 32.304688 -33.132812 28.285156 -32.59375 25.546875 -31.59375 C 22.804688 -30.59375 20.703125 -29.046875 19.234375 -26.953125 C 17.773438 -24.859375 17.046875 -22.125 17.046875 -18.75 C 17.046875 -15.0625 18.035156 -12.210938 20.015625 -10.203125 C 22.003906 -8.203125 24.835938 -7.203125 28.515625 -7.203125 Z M 28.515625 -7.203125 "/></g></g></g><g fill="#183968" fill-opacity="1"><g transform="translate(230.561597, 119.708844)"><g><path d="M 8.65625 0 L 8.65625 -93.015625 L 19.9375 -93.015625 L 19.9375 0 Z M 8.65625 0 "/></g></g></g><g fill="#183968" fill-opacity="1"><g transform="translate(259.082604, 119.708844)"><g><path d="M 17.296875 -31.53125 C 17.296875 -23.757812 18.90625 -17.757812 22.125 -13.53125 C 25.34375 -9.3125 30.046875 -7.203125 36.234375 -7.203125 C 41.117188 -7.203125 45.035156 -8.179688 47.984375 -10.140625 C 50.929688 -12.109375 52.925781 -14.597656 53.96875 -17.609375 L 63.875 -14.796875 C 59.820312 -4.097656 50.609375 1.25 36.234375 1.25 C 26.203125 1.25 18.5625 -1.734375 13.3125 -7.703125 C 8.070312 -13.679688 5.453125 -22.5625 5.453125 -34.34375 C 5.453125 -45.550781 8.070312 -54.140625 13.3125 -60.109375 C 18.5625 -66.085938 26.054688 -69.078125 35.796875 -69.078125 C 55.722656 -69.078125 65.6875 -57.0625 65.6875 -33.03125 L 65.6875 -31.53125 Z M 54.03125 -40.1875 C 53.40625 -47.332031 51.585938 -52.539062 48.578125 -55.8125 C 45.566406 -59.09375 41.242188 -60.734375 35.609375 -60.734375 C 30.128906 -60.734375 25.789062 -58.90625 22.59375 -55.25 C 19.394531 -51.59375 17.671875 -46.570312 17.421875 -40.1875 Z M 54.03125 -40.1875 "/></g></g></g><g fill="#183968" fill-opacity="1"><g transform="translate(286.579181, 119.708844)"><g><path d="M 57.3125 0.578125 C 51.644531 0.578125 46.875 -1.457031 43 -5.53125 C 40.59375 -3.445312 37.851562 -1.84375 34.78125 -0.71875 C 31.707031 0.394531 28.488281 0.953125 25.125 0.953125 C 18.238281 0.953125 12.90625 -0.703125 9.125 -4.015625 C 5.34375 -7.328125 3.453125 -11.929688 3.453125 -17.828125 C 3.453125 -26.722656 8.945312 -33.59375 19.9375 -38.4375 C 18.882812 -40.414062 17.972656 -42.765625 17.203125 -45.484375 C 16.429688 -48.210938 16.046875 -50.695312 16.046875 -52.9375 C 16.046875 -57.75 17.507812 -61.472656 20.4375 -64.109375 C 23.375 -66.753906 27.53125 -68.078125 32.90625 -68.078125 C 37.738281 -68.078125 41.632812 -66.859375 44.59375 -64.421875 C 47.5625 -61.992188 49.046875 -58.664062 49.046875 -54.4375 C 49.046875 -50.65625 47.582031 -47.289062 44.65625 -44.34375 C 41.726562 -41.394531 36.644531 -38.476562 29.40625 -35.59375 C 32.957031 -29.03125 37.648438 -22.4375 43.484375 -15.8125 C 47.097656 -21.125 49.832031 -27.6875 51.6875 -35.5 L 58.65625 -33.4375 C 56.644531 -25.457031 53.25 -17.945312 48.46875 -10.90625 C 51.550781 -7.769531 54.882812 -6.203125 58.46875 -6.203125 C 60.738281 -6.203125 62.613281 -6.457031 64.09375 -6.96875 L 64.09375 -0.484375 C 62.289062 0.222656 60.03125 0.578125 57.3125 0.578125 Z M 41.75 -54.4375 C 41.75 -56.738281 40.945312 -58.617188 39.34375 -60.078125 C 37.738281 -61.535156 35.5625 -62.265625 32.8125 -62.265625 C 29.738281 -62.265625 27.398438 -61.4375 25.796875 -59.78125 C 24.191406 -58.132812 23.390625 -55.851562 23.390625 -52.9375 C 23.390625 -49.289062 24.429688 -45.382812 26.515625 -41.21875 C 30.710938 -42.914062 33.796875 -44.390625 35.765625 -45.640625 C 37.734375 -46.890625 39.222656 -48.234375 40.234375 -49.671875 C 41.242188 -51.117188 41.75 -52.707031 41.75 -54.4375 Z M 38.1875 -10.421875 C 31.851562 -17.921875 26.75 -25.238281 22.875 -32.375 C 15.3125 -29.175781 11.53125 -24.359375 11.53125 -17.921875 C 11.53125 -14.046875 12.769531 -10.976562 15.25 -8.71875 C 17.738281 -6.457031 21.128906 -5.328125 25.421875 -5.328125 C 27.691406 -5.328125 29.960938 -5.765625 32.234375 -6.640625 C 34.503906 -7.523438 36.488281 -8.785156 38.1875 -10.421875 Z M 38.1875 -10.421875 "/></g></g></g><g fill="#183968" fill-opacity="1"><g transform="translate(395.100892, 119.708844)"><g><path d="M 73.15625 0 L 63.0625 -25.828125 L 22.8125 -25.828125 L 12.65625 0 L 0.25 0 L 36.296875 -88.328125 L 49.890625 -88.328125 L 85.375 0 Z M 42.9375 -79.296875 L 42.375 -77.53125 C 41.332031 -74.070312 39.785156 -69.625 37.734375 -64.1875 L 26.453125 -35.171875 L 59.484375 -35.171875 L 48.140625 -64.3125 C 46.972656 -67.195312 45.800781 -70.457031 44.625 -74.09375 Z M 42.9375 -79.296875 "/></g></g></g><g fill="#183968" fill-opacity="1"><g transform="translate(480.726595, 119.708844)"><g><path d="M 59.546875 -18.75 C 59.546875 -12.351562 57.128906 -7.421875 52.296875 -3.953125 C 47.472656 -0.484375 40.71875 1.25 32.03125 1.25 C 23.59375 1.25 17.082031 -0.132812 12.5 -2.90625 C 7.925781 -5.6875 4.953125 -10.023438 3.578125 -15.921875 L 13.546875 -17.859375 C 14.503906 -14.222656 16.484375 -11.554688 19.484375 -9.859375 C 22.492188 -8.171875 26.675781 -7.328125 32.03125 -7.328125 C 37.757812 -7.328125 41.945312 -8.203125 44.59375 -9.953125 C 47.25 -11.710938 48.578125 -14.347656 48.578125 -17.859375 C 48.578125 -20.535156 47.65625 -22.707031 45.8125 -24.375 C 43.976562 -26.050781 41.015625 -27.429688 36.921875 -28.515625 L 28.828125 -30.65625 C 22.359375 -32.320312 17.753906 -33.957031 15.015625 -35.5625 C 12.273438 -37.175781 10.128906 -39.128906 8.578125 -41.421875 C 7.035156 -43.722656 6.265625 -46.546875 6.265625 -49.890625 C 6.265625 -56.078125 8.46875 -60.789062 12.875 -64.03125 C 17.289062 -67.269531 23.71875 -68.890625 32.15625 -68.890625 C 39.632812 -68.890625 45.578125 -67.570312 49.984375 -64.9375 C 54.398438 -62.300781 57.191406 -58.082031 58.359375 -52.28125 L 48.203125 -51.03125 C 47.578125 -54.03125 45.894531 -56.332031 43.15625 -57.9375 C 40.414062 -59.550781 36.75 -60.359375 32.15625 -60.359375 C 27.0625 -60.359375 23.300781 -59.582031 20.875 -58.03125 C 18.445312 -56.488281 17.234375 -54.15625 17.234375 -51.03125 C 17.234375 -49.101562 17.734375 -47.507812 18.734375 -46.25 C 19.742188 -45 21.226562 -43.9375 23.1875 -43.0625 C 25.15625 -42.1875 29.296875 -40.972656 35.609375 -39.421875 C 41.578125 -37.921875 45.878906 -36.53125 48.515625 -35.25 C 51.148438 -33.976562 53.226562 -32.566406 54.75 -31.015625 C 56.28125 -29.472656 57.460938 -27.6875 58.296875 -25.65625 C 59.128906 -23.632812 59.546875 -21.332031 59.546875 -18.75 Z M 59.546875 -18.75 "/></g></g></g><g fill="#183968" fill-opacity="1"><g transform="translate(544.914531, 119.708844)"><g><path d="M 59.546875 -18.75 C 59.546875 -12.351562 57.128906 -7.421875 52.296875 -3.953125 C 47.472656 -0.484375 40.71875 1.25 32.03125 1.25 C 23.59375 1.25 17.082031 -0.132812 12.5 -2.90625 C 7.925781 -5.6875 4.953125 -10.023438 3.578125 -15.921875 L 13.546875 -17.859375 C 14.503906 -14.222656 16.484375 -11.554688 19.484375 -9.859375 C 22.492188 -8.171875 26.675781 -7.328125 32.03125 -7.328125 C 37.757812 -7.328125 41.945312 -8.203125 44.59375 -9.953125 C 47.25 -11.710938 48.578125 -14.347656 48.578125 -17.859375 C 48.578125 -20.535156 47.65625 -22.707031 45.8125 -24.375 C 43.976562 -26.050781 41.015625 -27.429688 36.921875 -28.515625 L 28.828125 -30.65625 C 22.359375 -32.320312 17.753906 -33.957031 15.015625 -35.5625 C 12.273438 -37.175781 10.128906 -39.128906 8.578125 -41.421875 C 7.035156 -43.722656 6.265625 -46.546875 6.265625 -49.890625 C 6.265625 -56.078125 8.46875 -60.789062 12.875 -64.03125 C 17.289062 -67.269531 23.71875 -68.890625 32.15625 -68.890625 C 39.632812 -68.890625 45.578125 -67.570312 49.984375 -64.9375 C 54.398438 -62.300781 57.191406 -58.082031 58.359375 -52.28125 L 48.203125 -51.03125 C 47.578125 -54.03125 45.894531 -56.332031 43.15625 -57.9375 C 40.414062 -59.550781 36.75 -60.359375 32.15625 -60.359375 C 27.0625 -60.359375 23.300781 -59.582031 20.875 -58.03125 C 18.445312 -56.488281 17.234375 -54.15625 17.234375 -51.03125 C 17.234375 -49.101562 17.734375 -47.507812 18.734375 -46.25 C 19.742188 -45 21.226562 -43.9375 23.1875 -43.0625 C 25.15625 -42.1875 29.296875 -40.972656 35.609375 -39.421875 C 41.578125 -37.921875 45.878906 -36.53125 48.515625 -35.25 C 51.148438 -33.976562 53.226562 -32.566406 54.75 -31.015625 C 56.28125 -29.472656 57.460938 -27.6875 58.296875 -25.65625 C 59.128906 -23.632812 59.546875 -21.332031 59.546875 -18.75 Z M 59.546875 -18.75 "/></g></g></g><g fill="#183968" fill-opacity="1"><g transform="translate(609.102467, 119.708844)"><g><path d="M 66 -33.96875 C 66 -22.101562 63.382812 -13.265625 58.15625 -7.453125 C 52.9375 -1.648438 45.359375 1.25 35.421875 1.25 C 25.515625 1.25 18.03125 -1.765625 12.96875 -7.796875 C 7.914062 -13.835938 5.390625 -22.5625 5.390625 -33.96875 C 5.390625 -57.375 15.523438 -69.078125 35.796875 -69.078125 C 46.160156 -69.078125 53.785156 -66.222656 58.671875 -60.515625 C 63.554688 -54.816406 66 -45.96875 66 -33.96875 Z M 54.15625 -33.96875 C 54.15625 -43.332031 52.765625 -50.132812 49.984375 -54.375 C 47.210938 -58.613281 42.546875 -60.734375 35.984375 -60.734375 C 29.378906 -60.734375 24.601562 -58.570312 21.65625 -54.25 C 18.707031 -49.925781 17.234375 -43.164062 17.234375 -33.96875 C 17.234375 -25.03125 18.6875 -18.3125 21.59375 -13.8125 C 24.5 -9.320312 29.066406 -7.078125 35.296875 -7.078125 C 42.054688 -7.078125 46.890625 -9.25 49.796875 -13.59375 C 52.703125 -17.945312 54.15625 -24.738281 54.15625 -33.96875 Z M 54.15625 -33.96875 "/></g></g></g><g fill="#183968" fill-opacity="1"><g transform="translate(680.499009, 119.708844)"><g><path d="M 17.234375 -34.21875 C 17.234375 -25.195312 18.65625 -18.507812 21.5 -14.15625 C 24.34375 -9.8125 28.625 -7.640625 34.34375 -7.640625 C 38.363281 -7.640625 41.71875 -8.726562 44.40625 -10.90625 C 47.101562 -13.082031 48.765625 -16.425781 49.390625 -20.9375 L 60.796875 -20.1875 C 59.921875 -13.664062 57.140625 -8.460938 52.453125 -4.578125 C 47.773438 -0.691406 41.84375 1.25 34.65625 1.25 C 25.175781 1.25 17.9375 -1.742188 12.9375 -7.734375 C 7.945312 -13.734375 5.453125 -22.476562 5.453125 -33.96875 C 5.453125 -45.382812 7.957031 -54.085938 12.96875 -60.078125 C 17.988281 -66.078125 25.175781 -69.078125 34.53125 -69.078125 C 41.46875 -69.078125 47.222656 -67.28125 51.796875 -63.6875 C 56.378906 -60.09375 59.253906 -55.140625 60.421875 -48.828125 L 48.828125 -47.953125 C 48.242188 -51.710938 46.757812 -54.695312 44.375 -56.90625 C 42 -59.125 38.613281 -60.234375 34.21875 -60.234375 C 28.25 -60.234375 23.925781 -58.25 21.25 -54.28125 C 18.570312 -50.3125 17.234375 -43.625 17.234375 -34.21875 Z M 17.234375 -34.21875 "/></g></g></g><g fill="#183968" fill-opacity="1"><g transform="translate(744.686944, 119.708844)"><g><path d="M 8.59375 -82.234375 L 8.59375 -93.015625 L 19.875 -93.015625 L 19.875 -82.234375 Z M 8.59375 0 L 8.59375 -67.828125 L 19.875 -67.828125 L 19.875 0 Z M 8.59375 0 "/></g></g></g><g fill="#183968" fill-opacity="1"><g transform="translate(773.207951, 119.708844)"><g><path d="M 25.953125 1.25 C 19.140625 1.25 14.019531 -0.546875 10.59375 -4.140625 C 7.164062 -7.734375 5.453125 -12.664062 5.453125 -18.9375 C 5.453125 -25.957031 7.757812 -31.347656 12.375 -35.109375 C 17 -38.867188 24.445312 -40.875 34.71875 -41.125 L 49.953125 -41.375 L 49.953125 -45.0625 C 49.953125 -50.582031 48.78125 -54.53125 46.4375 -56.90625 C 44.101562 -59.289062 40.429688 -60.484375 35.421875 -60.484375 C 30.359375 -60.484375 26.675781 -59.625 24.375 -57.90625 C 22.082031 -56.195312 20.707031 -53.460938 20.25 -49.703125 L 8.46875 -50.765625 C 10.382812 -62.972656 19.453125 -69.078125 35.671875 -69.078125 C 44.191406 -69.078125 50.601562 -67.125 54.90625 -63.21875 C 59.207031 -59.3125 61.359375 -53.660156 61.359375 -46.265625 L 61.359375 -17.046875 C 61.359375 -13.703125 61.796875 -11.179688 62.671875 -9.484375 C 63.554688 -7.796875 65.234375 -6.953125 67.703125 -6.953125 C 68.785156 -6.953125 70.015625 -7.097656 71.390625 -7.390625 L 71.390625 -0.375 C 68.554688 0.289062 65.65625 0.625 62.6875 0.625 C 58.507812 0.625 55.46875 -0.46875 53.5625 -2.65625 C 51.65625 -4.851562 50.578125 -8.289062 50.328125 -12.96875 L 49.953125 -12.96875 C 47.078125 -7.789062 43.722656 -4.125 39.890625 -1.96875 C 36.066406 0.175781 31.421875 1.25 25.953125 1.25 Z M 28.515625 -7.203125 C 32.648438 -7.203125 36.328125 -8.140625 39.546875 -10.015625 C 42.765625 -11.898438 45.300781 -14.484375 47.15625 -17.765625 C 49.019531 -21.046875 49.953125 -24.421875 49.953125 -27.890625 L 49.953125 -33.46875 L 37.609375 -33.21875 C 32.304688 -33.132812 28.285156 -32.59375 25.546875 -31.59375 C 22.804688 -30.59375 20.703125 -29.046875 19.234375 -26.953125 C 17.773438 -24.859375 17.046875 -22.125 17.046875 -18.75 C 17.046875 -15.0625 18.035156 -12.210938 20.015625 -10.203125 C 22.003906 -8.203125 24.835938 -7.203125 28.515625 -7.203125 Z M 28.515625 -7.203125 "/></g></g></g><g fill="#183968" fill-opacity="1"><g transform="translate(844.604493, 119.708844)"><g><path d="M 34.71875 -0.5 C 31 0.5 27.195312 1 23.3125 1 C 14.289062 1 9.78125 -4.117188 9.78125 -14.359375 L 9.78125 -59.609375 L 1.9375 -59.609375 L 1.9375 -67.828125 L 10.21875 -67.828125 L 13.546875 -83 L 21.0625 -83 L 21.0625 -67.828125 L 33.59375 -67.828125 L 33.59375 -59.609375 L 21.0625 -59.609375 L 21.0625 -16.796875 C 21.0625 -13.535156 21.59375 -11.242188 22.65625 -9.921875 C 23.726562 -8.609375 25.578125 -7.953125 28.203125 -7.953125 C 29.710938 -7.953125 31.882812 -8.25 34.71875 -8.84375 Z M 34.71875 -0.5 "/></g></g></g><g fill="#183968" fill-opacity="1"><g transform="translate(880.271422, 119.708844)"><g><path d="M 17.296875 -31.53125 C 17.296875 -23.757812 18.90625 -17.757812 22.125 -13.53125 C 25.34375 -9.3125 30.046875 -7.203125 36.234375 -7.203125 C 41.117188 -7.203125 45.035156 -8.179688 47.984375 -10.140625 C 50.929688 -12.109375 52.925781 -14.597656 53.96875 -17.609375 L 63.875 -14.796875 C 59.820312 -4.097656 50.609375 1.25 36.234375 1.25 C 26.203125 1.25 18.5625 -1.734375 13.3125 -7.703125 C 8.070312 -13.679688 5.453125 -22.5625 5.453125 -34.34375 C 5.453125 -45.550781 8.070312 -54.140625 13.3125 -60.109375 C 18.5625 -66.085938 26.054688 -69.078125 35.796875 -69.078125 C 55.722656 -69.078125 65.6875 -57.0625 65.6875 -33.03125 L 65.6875 -31.53125 Z M 54.03125 -40.1875 C 53.40625 -47.332031 51.585938 -52.539062 48.578125 -55.8125 C 45.566406 -59.09375 41.242188 -60.734375 35.609375 -60.734375 C 30.128906 -60.734375 25.789062 -58.90625 22.59375 -55.25 C 19.394531 -51.59375 17.671875 -46.570312 17.421875 -40.1875 Z M 54.03125 -40.1875 "/></g></g></g></svg>