<svg id="Layer_1" data-name="Layer 1" xmlns="http://www.w3.org/2000/svg" viewBox="0 0 3969.19 420.54"><defs><style>.cls-1{fill:#183968;}</style></defs><path class="cls-1" d="M53.3,80.42q0,13.85,9.53,28.13t48.76,42.26q75.78,53.51,100.76,86.35t25,70q0,52.66-40.8,81.91t-89.38,29.25q-34.43,0-70.65-14.3T.28,373.9q0-3.87.83-14.57t.83-26.79a112.7,112.7,0,0,0-1-13.46q-1-7.9-1-10.41,0-10.26,12.09-10.27,13.47,0,15.11,20.54,3.33,33.87,23.88,52.74T108,390.56q36.64,0,60.65-20.65t24-53.91q0-20-16.19-42.4T91.6,202.37q-28.3-20-44.55-34a126.37,126.37,0,0,1-27.2-33.17q-11-19.15-11-43.58,0-39.7,35.95-65.79T127.69-.28q26.64,0,57,13.19t30.4,31c0,1.66-.1,4.3-.28,7.91s-.28,8.93-.28,16a98.11,98.11,0,0,0,1.11,10.82q0,18.33-12.62,18.33-4.5,0-8.84-4.29t-4.35-9.26q0-27.09-18.39-41.61T126.56,27.2q-30.14,0-51.7,16.63T53.3,80.42Z" transform="translate(0 0.28)"/><path class="cls-1" d="M429.42,299.51q6.39,0,8.61-2.2t2.22-8q0-21.19-16.52-39.64t-49.82-18.45q-23.06,0-47.61,21.89t-24.57,62.07q0,29.37,25.91,52.79t58.06,23.41q24.39,0,52.65-15.26,10.8-5.83,14.13-5.83a10.92,10.92,0,0,1,7.9,2.81,9.41,9.41,0,0,1,2.91,7q0,10.14-30.67,24.57a146.8,146.8,0,0,1-63.15,14.43q-48,0-80.78-32.75t-32.76-78q0-41.36,35.95-70.78t80.64-29.42q58,0,86.88,29.7T488.27,309q0,8.88-4.44,11T467.49,322H340.29q-15.53,0-15.52-11.53,0-11,16.1-11Z" transform="translate(0 0.28)"/><path class="cls-1" d="M708.67,360.9q0,20,26.65,27.72,6.66,2,9.86,4.49t3.19,9.56c0,2.43-1.44,4.54-4.3,6.32a17.44,17.44,0,0,1-9.3,2.67q-5.28,0-14.3-2.5a57.3,57.3,0,0,0-14.57-2.5,66.89,66.89,0,0,0-16.1,2.5q-9.72,2.49-13,2.5a12.73,12.73,0,0,1-7.63-2.78q-3.75-2.78-3.75-5.55,0-4.44-2.78-4.44a10.14,10.14,0,0,0-5,1.94,126.35,126.35,0,0,1-67.73,19.43q-17.22,0-38.45-8.88a76.12,76.12,0,0,1-34-27.34q-12.78-18.46-12.77-45.67,0-28.86,27.57-51.07t71.06-22.21q14.69,0,32.28,8.19t17.6,16.79a7.76,7.76,0,0,1-3.61,6.67,15.28,15.28,0,0,1-8.88,2.49q-3.61,0-14.16-5a50.1,50.1,0,0,0-21.65-5q-22.77,0-37.75,13.43t-15,35.85q0,26,17.21,40a61.13,61.13,0,0,0,39.69,14q20.26,0,37.34-13.32t17.07-35.53V268.42q0-16.92-11.22-27.48t-30-10.55q-24.1,0-46.8,15.27-7.75,5.28-10.52,5.27a18.56,18.56,0,0,1-11.36-3.47,10.7,10.7,0,0,1-4.71-9q0-13.59,24.85-23T627.9,206q36.36,0,58.57,18.29t22.2,43.51Z" transform="translate(0 0.28)"/><path class="cls-1" d="M850.8,369.74a20.91,20.91,0,0,0,3.88,12.77q3.89,5.28,17.21,7.49t16.24,5.6a12.49,12.49,0,0,1,2.92,8.44q0,9-13.64,9A214.5,214.5,0,0,1,852.65,411a214.19,214.19,0,0,0-24.75-2.08A180.25,180.25,0,0,0,805.08,411,180.13,180.13,0,0,1,782.27,413q-11.13,0-14.33-2.53a8.47,8.47,0,0,1-3.19-7,11.28,11.28,0,0,1,2.63-7.6Q770,392.78,784,390.7t18.32-9.15a31.14,31.14,0,0,0,4.3-16.51V65.76a32.32,32.32,0,0,0-4.44-17.05Q797.78,41.35,783.9,38t-16.52-6.71a12,12,0,0,1-2.63-7.6q0-4.21,4.59-6.75A19.63,19.63,0,0,1,779,14.43a77.7,77.7,0,0,1,13.22,1.67,77.42,77.42,0,0,0,13,1.66,90.14,90.14,0,0,0,14.21-1.66,90.21,90.21,0,0,1,14.2-1.67q8.91,0,13.09,4.72t4.18,16.93Z" transform="translate(0 0.28)"/><path class="cls-1" d="M1092.29,299.51q6.39,0,8.61-2.2t2.22-8q0-21.19-16.52-39.64t-49.82-18.45q-23,0-47.61,21.89t-24.56,62.07q0,29.37,25.9,52.79t58.06,23.41q24.39,0,52.65-15.26,10.82-5.83,14.13-5.83a10.9,10.9,0,0,1,7.9,2.81,9.41,9.41,0,0,1,2.91,7q0,10.14-30.67,24.57a146.8,146.8,0,0,1-63.15,14.43q-48,0-80.78-32.75t-32.76-78q0-41.36,36-70.78t80.64-29.42q58,0,86.88,29.7T1151.14,309q0,8.88-4.43,11T1130.36,322h-127.2q-15.51,0-15.51-11.53,0-11,16.1-11Z" transform="translate(0 0.28)"/><path class="cls-1" d="M1398.66,186.15a37.35,37.35,0,0,0,5.59,5.92q4.47,4.14,4.47,8.61,0,4.92-7.38,4.92-2,0-8-.56t-9.84-.56q-21.68,0-49.51,23t-27.83,71.22q0,38.63,26.89,68.87t63,30.26q36.06,0,68.11-24.4t32-59.16q0-26.07-15-41.33t-31.83-15.26a31.64,31.64,0,0,0-22.42,8.57q-9.19,8.56-9.19,22.57,0,9.36,9.19,16.24,4.94,3.65,4.93,6.13c0,2.12-1.11,4.06-3.33,5.79a10.79,10.79,0,0,1-6.67,2.61q-8,0-14.66-9.06t-6.67-22.74a66.21,66.21,0,0,1,7.82-31.23q7.83-14.9,28.17-30.46a131.24,131.24,0,0,1,46-22.5q25.71-6.94,67.51-6.94,38,0,61.58-8.16t23.58-25.82q0-2-2.24-6.15t-2.23-6.59q0-7.81,9.55-7.82,5.51,0,9,6.37a27.92,27.92,0,0,1,3.53,13.74q0,13.86-11.29,28.06t-31.29,25a133,133,0,0,1-44.71,14.42q-24.7,3.57-68.29,3.57-24.81,0-31.18,2.57c-4.24,1.72-6.37,3.1-6.37,4.14s1.34,1.56,4,1.56q19.89,0,37.44,21t17.54,52.52q0,27.5-17.88,50.18t-48.28,36q-30.4,13.31-59.68,13.3-58.12,0-95.89-34.9t-37.78-86.59q0-40.28,32.3-71.93t74.77-35.24c2.68-.3,4-.89,4-1.79s-1-2.75-3.13-5.57l-59.9-84.09q-2-2.67-2-4.46,0-4.45,8.6-5.46t30.07-1h103.49q8.71,0,13,1.34t6.6,7q2.34,5.69,2.34,18.21,0,20.79-3.1,25.26a10.34,10.34,0,0,1-9.07,4.47q-6.19,0-10.63-9.61-4-8.72-9-8.72h-62.24q-13.26,0-13.26,8a15,15,0,0,0,3.13,8.49Z" transform="translate(0 0.28)"/><path class="cls-1" d="M1953.92,107.15q-5.55-12.77-8.33-12.77-3.36,0-10.09,17.74l-59.2,135.62L1825.12,362a24.28,24.28,0,0,0-2.22,9.16,10.52,10.52,0,0,0,3.19,7.48q3.2,3.33,15.13,6.66t15,6.7a11,11,0,0,1,3.06,7.58q0,12.92-16.66,12.92-3.88,0-19-2.36a169.13,169.13,0,0,0-25.13-2.36,111.44,111.44,0,0,0-21.09,2.08q-10.83,2.08-15.82,2.08-6.94,0-11.39-3.66c-3-2.44-4.44-5.29-4.44-8.55,0-4.81.93-8,2.76-9.44s5.25-2.59,10.22-3.33q21.54-3.6,29.68-16.24t42-89.52l67.17-149.89q24.71-53.85,31.78-71.48t7.08-27.34q0-3.34-2.46-12.08t-2.45-12.63q0-8,8.59-8,14.13,0,22.72,11.94t23,45l76.89,173.76q41.92,94.94,53,117.42t18.23,29A44,44,0,0,0,2151,386.4q9.91,3,13.55,6t3.64,9.86q0,9.7-17.53,9.71-5.83,0-21.27-1.8a263,263,0,0,0-30.73-1.8,254.77,254.77,0,0,0-31.85,2.08q-16.55,2.07-22.66,2.08-9.47,0-15-3.23c-3.71-2.15-5.56-5.11-5.56-8.85a10.21,10.21,0,0,1,3.35-7.87q3.35-3.09,18-4.47t19-6.23a17.46,17.46,0,0,0,4.33-12q0-7.74-15.83-42.77t-19.7-37.23q-3.87-2.21-15-2.21H1893.93a20.4,20.4,0,0,1-13-4.63q-5.81-4.63-5.81-10.8,0-4.75,4.57-8.41a16.2,16.2,0,0,1,10.39-3.64h119.12q10,0,10-3.61,0-2.22-3.88-10.83Z" transform="translate(0 0.28)"/><path class="cls-1" d="M2222.62,251.46q0,6.38,6,13T2266.63,288q32.11,16.89,43.32,33.15t11.22,34.32q0,28.08-23.46,44.75t-60.65,16.67a100.59,100.59,0,0,1-40.95-9q-20.4-9-20.4-18.18,0-7.55-1.11-18.57t-1.11-17.72q0-13.68,12.65-13.68a9.44,9.44,0,0,1,6.74,3.06q3.09,3,9.71,20.4T2218.72,387a37.44,37.44,0,0,0,21.36,6.39,34.72,34.72,0,0,0,24.81-9.7q10.2-9.7,10.2-24.95,0-10-6.93-18.7t-37.77-23.42q-30.87-14.67-40.14-28.68a53.93,53.93,0,0,1-9.27-30.36q0-21.63,20.13-36.31t46.77-14.7a125,125,0,0,1,43.31,7.73q21.09,7.71,21.09,16.42a95,95,0,0,0,1.11,13.05,92.67,92.67,0,0,1,1.11,12.49,18.09,18.09,0,0,1-2.95,10.27q-3,4.44-7.45,4.44-6.46,0-9.14-3.21t-4.87-11.32a27.2,27.2,0,0,0-7.16-12.86,49.63,49.63,0,0,0-13.22-8.66,42.42,42.42,0,0,0-18.45-3.92,33.14,33.14,0,0,0-19.41,6.51Q2222.63,244,2222.62,251.46Z" transform="translate(0 0.28)"/><path class="cls-1" d="M2395,251.46q0,6.38,5.95,13T2439,288q32.11,16.89,43.32,33.15t11.22,34.32q0,28.08-23.46,44.75t-60.65,16.67a100.59,100.59,0,0,1-41-9q-20.4-9-20.4-18.18,0-7.55-1.11-18.57t-1.11-17.72q0-13.68,12.65-13.68a9.44,9.44,0,0,1,6.74,3.06q3.09,3,9.71,20.4T2391.1,387a37.44,37.44,0,0,0,21.36,6.39,34.72,34.72,0,0,0,24.81-9.7q10.2-9.7,10.2-24.95,0-10-6.93-18.7t-37.77-23.42q-30.87-14.67-40.14-28.68a53.93,53.93,0,0,1-9.27-30.36q0-21.63,20.13-36.31t46.77-14.7a125,125,0,0,1,43.31,7.73q21.09,7.71,21.09,16.42a95,95,0,0,0,1.11,13.05,92.67,92.67,0,0,1,1.11,12.49,18.09,18.09,0,0,1-3,10.27q-3,4.44-7.45,4.44-6.46,0-9.14-3.21t-4.87-11.32a27.2,27.2,0,0,0-7.16-12.86,49.63,49.63,0,0,0-13.22-8.66,42.42,42.42,0,0,0-18.45-3.92,33.14,33.14,0,0,0-19.41,6.51Q2395,244,2395,251.46Z" transform="translate(0 0.28)"/><path class="cls-1" d="M2634,207.63q46.08,0,80.36,31.65t34.29,73q0,46.37-32.76,75.5t-87.72,29.15q-43.29,0-77.86-29.7t-34.56-73.84q0-42.19,30.4-74T2634,207.63Zm.28,184.87q31.92,0,50.94-23t19-58.29q0-34.69-20.4-56.9t-51.77-22.21q-32.2,0-50,21.79t-17.76,56.21q0,38,19.71,60.24T2634.28,392.5Z" transform="translate(0 0.28)"/><path class="cls-1" d="M2966.54,371.13q7.77,0,7.78,13,0,8.28-28,21.39a137.5,137.5,0,0,1-58.85,13.11q-50.54,0-86.61-30.68t-36.09-77.3q0-41.37,34.15-72.73t81.61-31.37q25.53,0,58,10.51T2971,236.12a153.82,153.82,0,0,0,1.67,25.17q1.66,9.68,1.66,11.06,0,12.45-11.54,12.45-8.73,0-13.58-16.65t-20.4-26.51q-15.56-9.85-38.31-9.86-28.59,0-53.16,21.17t-24.56,59.89q0,35.64,27.53,58.35t57.28,22.7a96.9,96.9,0,0,0,22.52-2.78q11.67-2.76,26-11.38T2966.54,371.13Z" transform="translate(0 0.28)"/><path class="cls-1" d="M3081.19,364.74q0,13.61,5,17.77t13.32,5.41q8.32,1.26,11.8,3.5t3.47,9.28q0,9.3-16.14,9.29a192.14,192.14,0,0,1-20.87-1.66,189.9,189.9,0,0,0-20.59-1.67q-6.69,0-19.48,2.22t-19.2,2.22a17.15,17.15,0,0,1-11-3.65,11.64,11.64,0,0,1-4.59-9.56,8.94,8.94,0,0,1,2.5-6.32q2.51-2.67,12.77-4.34t14.3-6.65q4-5,4-24.1V262.83q0-11.91-5-15.79t-14.71-5.83q-9.72-1.94-12.07-5a12.1,12.1,0,0,1-2.36-7.59,10.11,10.11,0,0,1,4-8.28,14.87,14.87,0,0,1,9.61-3.24,63.25,63.25,0,0,1,13.51,2.08q8.76,2.08,12.95,2.08a103.21,103.21,0,0,0,14.49-1.52,103.19,103.19,0,0,1,14.48-1.53q10.3,0,10.31,17.21c0,1.85-.1,4.3-.28,7.36s-.28,5.13-.28,6.24ZM3058.57,123.8A31.62,31.62,0,0,1,3089.8,155q0,11.32-9.12,19.2a31.93,31.93,0,0,1-21.56,7.87,29.65,29.65,0,0,1-21.41-8.7,28,28,0,0,1-9-20.86q0-11.59,9-20.16A29.29,29.29,0,0,1,3058.57,123.8Z" transform="translate(0 0.28)"/><path class="cls-1" d="M3343.79,360.9q0,20,26.65,27.72,6.66,2,9.85,4.49t3.19,9.56q0,3.65-4.3,6.32a17.41,17.41,0,0,1-9.3,2.67q-5.28,0-14.3-2.5a57.3,57.3,0,0,0-14.57-2.5,67,67,0,0,0-16.1,2.5c-6.48,1.66-10.82,2.5-13,2.5a12.73,12.73,0,0,1-7.63-2.78q-3.75-2.78-3.75-5.55,0-4.44-2.77-4.44a10.17,10.17,0,0,0-5,1.94A126.32,126.32,0,0,1,3225,420.26q-17.22,0-38.44-8.88a76.09,76.09,0,0,1-34-27.34q-12.77-18.46-12.77-45.67,0-28.86,27.57-51.07t71.07-22.21q14.68,0,32.27,8.19t17.6,16.79a7.76,7.76,0,0,1-3.61,6.67,15.28,15.28,0,0,1-8.88,2.49q-3.62,0-14.16-5a50.07,50.07,0,0,0-21.65-5q-22.77,0-37.75,13.43t-15,35.85q0,26,17.21,40a61.15,61.15,0,0,0,39.69,14q20.26,0,37.34-13.32t17.07-35.53V268.42q0-16.92-11.22-27.48t-30-10.55q-24.09,0-46.8,15.27-7.76,5.28-10.52,5.27a18.58,18.58,0,0,1-11.36-3.47,10.69,10.69,0,0,1-4.7-9q0-13.59,24.84-23T3263,206q36.36,0,58.57,18.29t22.21,43.51Z" transform="translate(0 0.28)"/><path class="cls-1" d="M3485.91,346.7q0,23.32,2.19,29.84t8,6.52q9,0,22.21-10t17.7-10a8.35,8.35,0,0,1,6.51,3.38,12.26,12.26,0,0,1,2.83,8.16q0,7.89-21.79,25.66T3485.08,418q-43.86,0-43.86-64.3V247q0-5.26-1.39-5.68t-15.54-.42q-11.11,0-15-3.23t-3.89-9.42q0-5.32,2.92-7.58t11.38-4.61q8.46-2.35,13-5.55t12.77-13.33q8.19-10.12,11.66-28.45t3.47-52.74q0-16.38,9-16.38,10.11,0,12.63,4.58t2.53,15.41v92.71q0,5.55,7.22,5.55h39.41q11.94,0,11.94,10.4,0,12.09-17.21,12.09h-34.7c-2.59,0-4.16.41-4.72,1.25s-.83,2.91-.83,6.24Z" transform="translate(0 0.28)"/><path class="cls-1" d="M3743.79,299.51q6.38,0,8.6-2.2t2.22-8q0-21.19-16.51-39.64t-49.83-18.45q-23,0-47.61,21.89t-24.56,62.07q0,29.37,25.9,52.79t58.06,23.41q24.39,0,52.65-15.26,10.82-5.83,14.13-5.83a10.9,10.9,0,0,1,7.9,2.81,9.41,9.41,0,0,1,2.91,7q0,10.14-30.67,24.57a146.8,146.8,0,0,1-63.15,14.43q-48,0-80.78-32.75t-32.75-78q0-41.36,35.94-70.78t80.64-29.42q58,0,86.89,29.7T3802.63,309q0,8.88-4.43,11T3781.85,322h-127.2q-15.51,0-15.51-11.53,0-11,16.1-11Z" transform="translate(0 0.28)"/><path class="cls-1" d="M3870.64,251.46q0,6.38,6,13T3914.65,288q32.11,16.89,43.32,33.15t11.22,34.32q0,28.08-23.46,44.75t-60.65,16.67a100.55,100.55,0,0,1-40.95-9q-20.4-9-20.4-18.18,0-7.55-1.11-18.57t-1.11-17.72q0-13.68,12.65-13.68a9.44,9.44,0,0,1,6.74,3.06q3.09,3,9.71,20.4T3866.73,387a37.49,37.49,0,0,0,21.37,6.39,34.68,34.68,0,0,0,24.8-9.7q10.21-9.7,10.21-24.95,0-10-6.93-18.7t-37.77-23.42q-30.87-14.67-40.14-28.68a53.93,53.93,0,0,1-9.27-30.36q0-21.63,20.13-36.31t46.77-14.7a125,125,0,0,1,43.31,7.73q21.09,7.71,21.09,16.42a95,95,0,0,0,1.11,13.05,92.67,92.67,0,0,1,1.11,12.49,18.09,18.09,0,0,1-2.95,10.27q-3,4.44-7.45,4.44-6.47,0-9.14-3.21t-4.87-11.32a27.2,27.2,0,0,0-7.16-12.86,49.63,49.63,0,0,0-13.22-8.66,42.42,42.42,0,0,0-18.45-3.92,33.14,33.14,0,0,0-19.41,6.51Q3870.64,244,3870.64,251.46Z" transform="translate(0 0.28)"/></svg>